<svg width="161" height="146" viewBox="0 0 161 146" fill="none" xmlns="http://www.w3.org/2000/svg">
<path d="M158.38 87.9729L143.586 73.1887L145.41 67.5653C146.045 65.5892 144.131 63.2101 141.13 62.2407C138.128 61.2674 135.172 62.0677 134.531 64.0438L134.507 64.1165L88.1089 17.7487L96.1112 9.75008C98.3523 7.51447 98.3405 3.89856 96.1112 1.67081C93.8779 -0.556936 90.2615 -0.556936 88.0302 1.67081L80.0259 9.67143L72.0197 1.67081C69.7904 -0.556936 66.17 -0.556936 63.9407 1.67081C61.7114 3.89856 61.7015 7.51643 63.9407 9.75008L71.943 17.7468L25.7945 63.8668C25.033 62.0284 22.1898 61.2969 19.2836 62.2388C16.285 63.2081 14.3666 65.5873 15.0041 67.5633L16.7395 72.9154L1.67346 87.9709C-0.557819 90.2045 -0.557819 93.8204 1.67346 96.0502C3.90277 98.2779 7.52318 98.2779 9.75249 96.0502L20.6964 85.114L39.7213 143.779C40.3647 145.745 43.3141 146.557 46.3167 145.586C49.3173 144.614 51.2338 142.223 50.5963 140.257L29.775 76.0457L80.0279 25.826L130.552 76.319L109.82 140.261C109.184 142.227 111.099 144.618 114.101 145.589C117.1 146.561 120.051 145.749 120.695 143.783L139.633 85.3892L150.303 96.0541C152.535 98.2818 156.153 98.2818 158.382 96.0541C160.612 93.8224 160.612 90.2065 158.38 87.9729Z" fill="#00D5BE"/>
</svg>
