<svg width="641" height="91" viewBox="0 0 641 91" fill="none" xmlns="http://www.w3.org/2000/svg">
<path d="M31.0465 41.0725C27.6753 41.8951 24.5785 43.8342 21.7561 46.8896C18.9337 49.9451 17.5225 54.4108 17.5225 60.2867V88.8435H0V24.2087H17.5225V32.7875C20.4233 28.9486 23.9709 26.3436 28.1653 24.9725C32.3597 23.6015 36.1817 22.9552 39.6313 23.0335V40.1911C37.2793 39.9561 34.4177 40.2499 31.0465 41.0725ZM64.739 87.3158C59.3686 85.2004 54.7626 81.6161 50.9209 76.5629C47.0793 71.5096 45.1585 64.909 45.1585 56.7611C45.1585 48.6132 47.0989 42.0322 50.9797 37.0181C54.8606 32.004 59.5058 28.4393 64.9154 26.324C70.325 24.2087 75.4602 23.151 80.321 23.151C85.9658 23.151 91.3363 24.4045 96.4323 26.9116C101.528 29.4186 105.703 33.1009 108.957 37.9583C112.21 42.8157 113.916 48.574 114.072 55.2334C114.072 57.2704 114.033 59.0331 113.955 60.5217C113.876 62.0103 113.798 62.9504 113.72 63.3421H62.681C63.6218 67.8861 65.9738 70.9808 69.737 72.626C73.5002 74.2713 77.0282 75.0939 80.321 75.0939C84.5546 75.0939 87.9258 74.33 90.4347 72.8023C92.9435 71.2746 95.0995 69.5314 96.9027 67.5728L110.544 75.4465C103.175 85.4746 93.1003 90.4888 80.321 90.4888C75.3034 90.4888 70.1094 89.4311 64.739 87.3158ZM68.3258 42.1302C65.2682 44.5197 63.5434 47.438 63.1514 50.8852H95.4915C95.2563 48.8483 94.4723 46.8896 93.1395 45.0093C91.8067 43.1291 90.0231 41.5817 87.7887 40.3674C85.5542 39.153 83.0258 38.5459 80.2034 38.5459C75.3426 38.5459 71.3834 39.7406 68.3258 42.1302ZM177.341 82.38C175.852 84.417 173.284 86.2385 169.638 87.8446C165.993 89.4507 162.014 90.2537 157.702 90.2537C151.038 90.2537 145.256 88.7651 140.356 85.788C135.456 82.8109 131.712 78.7565 129.125 73.6249C126.538 68.4933 125.244 62.7937 125.244 56.5261C125.244 50.2585 126.538 44.5589 129.125 39.4272C131.712 34.2956 135.456 30.2413 140.356 27.2641C145.256 24.287 151.038 22.7985 157.702 22.7985C162.171 22.7985 166.11 23.5623 169.521 25.0901C172.931 26.6178 175.538 28.5568 177.341 30.9072V24.2087H194.746V88.8435H177.341V82.38ZM173.225 43.3053C170.011 39.8973 165.699 38.1933 160.289 38.1933C154.801 38.1933 150.47 39.8973 147.294 43.3053C144.119 46.7133 142.532 51.1203 142.532 56.5261C142.532 61.7752 144.158 66.1234 147.412 69.5706C150.666 73.0178 154.958 74.7414 160.289 74.7414C165.777 74.7414 170.109 73.1157 173.284 69.8644C176.459 66.613 178.047 62.1669 178.047 56.5261C178.047 51.1203 176.44 46.7133 173.225 43.3053ZM212.269 0H229.909V88.8435H212.269V0ZM263.248 87.3158C257.878 85.2004 253.272 81.6161 249.43 76.5629C245.589 71.5096 243.668 64.909 243.668 56.7611C243.668 48.6132 245.608 42.0322 249.489 37.0181C253.37 32.004 258.015 28.4393 263.425 26.324C268.834 24.2087 273.97 23.151 278.83 23.151C284.475 23.151 289.846 24.4045 294.942 26.9116C300.038 29.4186 304.212 33.1009 307.466 37.9583C310.72 42.8157 312.425 48.574 312.582 55.2334C312.582 57.2704 312.542 59.0331 312.464 60.5217C312.386 62.0103 312.307 62.9504 312.229 63.3421H261.19C262.131 67.8861 264.483 70.9808 268.246 72.626C272.01 74.2713 275.538 75.0939 278.83 75.0939C283.064 75.0939 286.435 74.33 288.944 72.8023C291.453 71.2746 293.609 69.5314 295.412 67.5728L309.054 75.4465C301.684 85.4746 291.61 90.4888 278.83 90.4888C273.813 90.4888 268.619 89.4311 263.248 87.3158ZM266.835 42.1302C263.778 44.5197 262.053 47.438 261.661 50.8852H294.001C293.766 48.8483 292.982 46.8896 291.649 45.0093C290.316 43.1291 288.532 41.5817 286.298 40.3674C284.064 39.153 281.535 38.5459 278.713 38.5459C273.852 38.5459 269.893 39.7406 266.835 42.1302ZM323.166 80.2647L332.339 68.0428C335.161 70.0015 338.454 71.6467 342.217 72.9786C345.98 74.3105 349.665 74.9764 353.271 74.9764C355.937 74.9764 358.152 74.428 359.916 73.3311C361.68 72.2343 362.562 70.8633 362.562 69.218C362.562 67.5728 361.562 66.4172 359.563 65.7512C357.564 65.0853 355.623 64.6152 353.742 64.341C351.86 64.0668 350.645 63.8905 350.096 63.8122C345.392 63.0287 341.335 62.0886 337.925 60.9918C334.514 59.8949 331.417 57.9363 328.634 55.1159C325.851 52.2954 324.459 48.4174 324.459 43.4816C324.459 35.3337 327.419 29.8887 333.338 27.1466C339.257 24.4045 345.196 23.0335 351.155 23.0335C356.251 23.0335 360.955 23.7778 365.267 25.2663C369.579 26.7549 373.851 29.1053 378.085 32.3174L368.912 44.3042C365.855 42.5023 362.836 41.0529 359.857 39.9561C356.878 38.8592 353.781 38.3108 350.567 38.3108C348.607 38.3108 346.705 38.7417 344.863 39.6035C343.021 40.4653 342.099 41.6405 342.099 43.1291C342.099 45.0093 343.373 46.3412 345.921 47.1247C348.469 47.9081 351.272 48.4957 354.33 48.8874C359.818 49.8276 364.208 50.8069 367.501 51.8254C370.794 52.8439 373.714 54.7437 376.262 57.525C378.81 60.3062 380.084 64.2431 380.084 69.3355C380.084 76.0732 377.771 81.2636 373.146 84.9066C368.52 88.5497 361.974 90.3712 353.507 90.3712C341.747 90.3712 331.633 87.0024 323.166 80.2647ZM415.835 65.81C415.835 68.5521 416.305 70.8437 417.246 72.6848C418.187 74.5259 420.382 75.4465 423.832 75.4465C425.4 75.4465 426.889 75.3681 428.3 75.2114V90.0187C425.478 90.3321 422.852 90.4888 420.421 90.4888C415.404 90.4888 411.346 90.0774 408.25 89.2548C405.153 88.4322 402.742 86.8457 401.017 84.4953C399.292 82.145 398.43 78.7761 398.43 74.3888V38.5459H390.551V23.151H398.43V5.87589H415.835V23.151H428.771V38.5459H415.835V65.81ZM491.334 82.38C489.845 84.417 487.277 86.2385 483.631 87.8446C479.986 89.4507 476.007 90.2537 471.695 90.2537C465.031 90.2537 459.249 88.7651 454.349 85.788C449.449 82.8109 445.705 78.7565 443.118 73.6249C440.531 68.4933 439.237 62.7937 439.237 56.5261C439.237 50.2585 440.531 44.5589 443.118 39.4272C445.705 34.2956 449.449 30.2413 454.349 27.2641C459.249 24.287 465.031 22.7985 471.695 22.7985C476.164 22.7985 480.103 23.5623 483.514 25.0901C486.924 26.6178 489.531 28.5568 491.334 30.9072V24.2087H508.739V88.8435H491.334V82.38ZM487.218 43.3053C484.004 39.8973 479.692 38.1933 474.282 38.1933C468.794 38.1933 464.463 39.8973 461.287 43.3053C458.112 46.7133 456.525 51.1203 456.525 56.5261C456.525 61.7752 458.151 66.1234 461.405 69.5706C464.659 73.0178 468.951 74.7414 474.282 74.7414C479.77 74.7414 484.102 73.1157 487.277 69.8644C490.452 66.613 492.04 62.1669 492.04 56.5261C492.04 51.1203 490.433 46.7133 487.218 43.3053ZM547.9 65.81C547.9 68.5521 548.37 70.8437 549.311 72.6848C550.252 74.5259 552.447 75.4465 555.897 75.4465C557.465 75.4465 558.954 75.3681 560.366 75.2114V90.0187C557.543 90.3321 554.917 90.4888 552.486 90.4888C547.469 90.4888 543.412 90.0774 540.315 89.2548C537.218 88.4322 534.807 86.8457 533.082 84.4953C531.358 82.145 530.495 78.7761 530.495 74.3888V38.5459H522.616V23.151H530.495V5.87589H547.9V23.151H560.836V38.5459H547.9V65.81ZM590.883 87.3158C585.513 85.2004 580.907 81.6161 577.065 76.5629C573.223 71.5096 571.302 64.909 571.302 56.7611C571.302 48.6132 573.243 42.0322 577.124 37.0181C581.004 32.004 585.65 28.4393 591.059 26.324C596.469 24.2087 601.604 23.151 606.465 23.151C612.11 23.151 617.48 24.4045 622.576 26.9116C627.672 29.4186 631.847 33.1009 635.101 37.9583C638.354 42.8157 640.059 48.574 640.216 55.2334C640.216 57.2704 640.177 59.0331 640.099 60.5217C640.02 62.0103 639.942 62.9504 639.863 63.3421H588.825C589.766 67.8861 592.118 70.9808 595.881 72.626C599.644 74.2713 603.172 75.0939 606.465 75.0939C610.699 75.0939 614.07 74.33 616.579 72.8023C619.087 71.2746 621.243 69.5314 623.047 67.5728L636.688 75.4465C629.319 85.4746 619.244 90.4888 606.465 90.4888C601.447 90.4888 596.253 89.4311 590.883 87.3158ZM594.47 42.1302C591.412 44.5197 589.687 47.438 589.295 50.8852H621.635C621.4 48.8483 620.616 46.8896 619.283 45.0093C617.951 43.1291 616.167 41.5817 613.933 40.3674C611.698 39.153 609.17 38.5459 606.347 38.5459C601.487 38.5459 597.527 39.7406 594.47 42.1302Z" fill="#111111"/>
</svg>
